<svg data-v-0dd9719b="" version="1.0" xmlns="http://www.w3.org/2000/svg" xmlns:xlink="http://www.w3.org/1999/xlink" width="100%" height="100%" viewBox="0 0 340.000000 250.000000" preserveAspectRatio="xMidYMid meet" color-interpolation-filters="sRGB" style="margin: auto;"> <rect data-v-0dd9719b="" x="0" y="0" width="100%" height="100%" fill="#fff" fill-opacity="1" class="background"></rect> <rect data-v-0dd9719b="" x="0" y="0" width="100%" height="100%" fill="url(#watermark)" fill-opacity="1" class="watermarklayer"></rect> <g data-v-0dd9719b="" fill="#333" class="icon-text-wrapper icon-svg-group iconsvg" transform="translate(47.70204162597656,95)"><g class="iconsvg-imagesvg" transform="translate(0,0)"><g><rect fill="#333" fill-opacity="0" stroke-width="2" x="0" y="0" width="60" height="60" class="image-rect"></rect> <svg x="0" y="0" width="60" height="60" filtersec="colorsb960799497" class="image-svg-svg primary" style="overflow: visible;"><svg xmlns="http://www.w3.org/2000/svg" viewBox="0 0 100 100"><defs><linearGradient id="a8d3e7dd2-f9fb-4952-af91-7e6c2ec1f4b3" y1="50" x2="100" y2="50" gradientUnits="userSpaceOnUse"><stop offset="0" stop-color="#00b7ef"></stop><stop offset="1" stop-color="#f0f"></stop></linearGradient></defs><path d="M50 40.62A9.38 9.38 0 1 1 40.62 50 9.38 9.38 0 0 1 50 40.62m6.37-31.35A41.23 41.23 0 0 1 85.7 70.61l-5.51-3.18a34.88 34.88 0 0 0-17.45-49.88v14.37a22.11 22.11 0 0 1 2.42 34.18L80 74.67l2.08 1.2a41.21 41.21 0 0 1-67.78-5.26l5.51-3.18a34.87 34.87 0 0 0 51.92 9.82L59.3 70.07a22.14 22.14 0 0 1-30.83-15l-14.84 8.57-2.09 1.21A41.24 41.24 0 0 1 50 8.78v6.37A34.85 34.85 0 0 0 15.15 50a34.18 34.18 0 0 0 .39 5.19L28 48a22.1 22.1 0 0 1 28.37-19.18V9.27zM50 0A50 50 0 1 1 0 50 50 50 0 0 1 50 0z" fill-rule="evenodd" fill="url(#a8d3e7dd2-f9fb-4952-af91-7e6c2ec1f4b3)"></path></svg></svg> <!----></g></g> <g transform="translate(67,7.584247589111328)"><g data-gra="path-name" fill-rule="" class="tp-name iconsvg-namesvg" transform="translate(0,0)"><g transform="scale(1)"><g><path d="M9.9 1.8Q8.5 2.02 8.21 1.37 7.92 0.72 8.53-0.4L8.53-0.4Q9.11-1.4 9.11-2.02L9.11-2.02 9.11-13.46 3.56-13.46Q2.27-13.46 2.27-14.8L2.27-14.8Q2.27-16.09 3.56-16.09L3.56-16.09 9.11-16.09 9.11-28.51Q9.11-29.88 10.48-29.88L10.48-29.88Q11.84-29.88 11.84-28.51L11.84-28.51 11.84-16.09 32.4-16.09Q33.7-16.09 33.7-14.8L33.7-14.8Q33.7-13.46 32.4-13.46L32.4-13.46 20.09-13.46Q21.89-9.32 24.98-6.26L24.98-6.26Q28.12-3.17 32.33-1.48L32.33-1.48Q34.49-0.79 33.37 0.72L33.37 0.72Q32.65 1.69 31.28 1.19L31.28 1.19Q21.53-2.7 17.39-13.46L17.39-13.46 11.84-13.46 11.84-1.44 18.94-3.2Q20.34-3.56 20.48-2.2L20.48-2.2Q20.52-1.66 19.55-1.04L19.55-1.04Q18.76-0.54 17.96-0.32L17.96-0.32Q16.85 0 14.98 0.5L14.98 0.5Q10.91 1.66 9.9 1.8L9.9 1.8ZM17.57-18.54Q16.42-17.96 15.55-18.83L15.55-18.83Q14.87-19.51 15.01-20 15.16-20.48 16.09-20.92L16.09-20.92Q22.64-24.01 26.78-28.48L26.78-28.48Q27.5-29.34 28.58-28.84L28.58-28.84Q30.13-28.15 29.09-26.93L29.09-26.93Q26.71-24.44 23.8-22.39L23.8-22.39Q20.84-20.23 17.57-18.54L17.57-18.54ZM61.16 1.51L47.16 1.51Q46.22 1.51 45.65 0.94 45.07 0.36 45.07-0.58L45.07-0.58 45.07-9.29Q42.7-7.24 40.39-5.9L40.39-5.9Q39.17-5.26 38.41-6.16L38.41-6.16Q37.44-7.34 39.1-8.24L39.1-8.24Q43.63-10.8 46.69-14.94L46.69-14.94 39.31-14.94Q38.2-14.94 38.2-16.06 38.2-17.17 39.31-17.17L39.31-17.17 48.2-17.17Q49.21-19.04 49.64-20.02L49.64-20.02 42.37-20.02Q41.29-20.02 41.29-21.13L41.29-21.13Q41.29-22.21 42.37-22.21L42.37-22.21 50.51-22.21Q50.94-23.4 51.3-24.91L51.3-24.91 41.26-24.91Q40.14-24.91 40.14-26.03 40.14-27.14 41.26-27.14L41.26-27.14 51.77-27.14Q51.88-27.72 52.02-28.87L52.02-28.87Q52.16-30.13 53.48-30.02 54.79-29.92 54.65-28.62L54.65-28.62Q54.58-28.15 54.43-27.14L54.43-27.14 66.74-27.14Q67.86-27.14 67.86-26.03 67.86-24.91 66.74-24.91L66.74-24.91 53.96-24.91Q53.71-23.72 53.24-22.21L53.24-22.21 65.66-22.21Q66.74-22.21 66.74-21.13L66.74-21.13Q66.74-20.02 65.66-20.02L65.66-20.02 58.64-20.02Q59.4-18.29 60.08-17.17L60.08-17.17 68.72-17.17Q69.84-17.17 69.84-16.06 69.84-14.94 68.72-14.94L68.72-14.94 61.63-14.94Q64.73-10.91 68.98-8.75L68.98-8.75Q70.63-8.06 69.59-6.73L69.59-6.73Q68.83-5.8 67.72-6.34L67.72-6.34Q65.38-7.6 63.25-9.43L63.25-9.43 63.25-0.58Q63.25 0.36 62.68 0.94 62.1 1.51 61.16 1.51L61.16 1.51ZM48.42-0.68L48.42-0.68 59.76-0.68Q60.52-0.68 60.52-1.44L60.52-1.44 60.52-4.43 47.66-4.43 47.66-1.44Q47.66-0.68 48.42-0.68ZM47.66-9.9L47.66-6.44 60.52-6.44 60.52-9.9 47.66-9.9ZM47.74-12.06L47.74-12.06 60.7-12.06Q59.69-13.25 58.61-14.94L58.61-14.94 49.86-14.94Q48.89-13.39 47.74-12.06ZM51.16-17.17L51.16-17.17 57.28-17.17Q56.48-18.72 55.94-20.02L55.94-20.02 52.42-20.02Q52.09-19.04 51.16-17.17ZM89.89 2.7L89.89 2.7Q88.52 2.7 88.52 0.83L88.52 0.83 88.52-14.58Q88.52-14.76 88.34-14.76L88.34-14.76 80.28-14.76Q80.1-14.76 80.1-14.58L80.1-14.58 80.1-3.28Q80.1-1.4 78.77-1.4L78.77-1.4Q77.44-1.4 77.44-3.28L77.44-3.28 77.44-15.52Q77.44-17.39 79.31-17.39L79.31-17.39 88.34-17.39Q88.52-17.39 88.52-17.57L88.52-17.57 88.52-22.07Q88.52-22.25 88.34-22.25L88.34-22.25 75.82-22.25Q73.94-22.25 73.94-23.58L73.94-23.58Q73.94-24.88 75.82-24.88L75.82-24.88 89.1-24.88Q89.28-24.88 89.21-25.06L89.21-25.06Q88.45-26.93 87.98-27.72L87.98-27.72Q87.05-29.34 88.16-30.02L88.16-30.02Q89.28-30.67 90.29-29.12L90.29-29.12Q91.44-27.32 91.62-26.82L91.62-26.82Q92.27-25.06 91.98-24.95L91.98-24.95Q91.8-24.88 91.98-24.88L91.98-24.88 104.22-24.88Q106.09-24.88 106.09-23.58L106.09-23.58Q106.09-22.25 104.22-22.25L104.22-22.25 91.4-22.25Q91.22-22.25 91.22-22.07L91.22-22.07 91.22-17.57Q91.22-17.39 91.4-17.39L91.4-17.39 101.02-17.39Q102.89-17.39 102.89-15.52L102.89-15.52 102.89-4.79Q102.85-1.98 100.48-1.66L100.48-1.66Q98.35-1.37 96.48-1.51L96.48-1.51Q94.61-1.51 94.61-2.84L94.61-2.84Q94.64-4.18 96.52-4.14L96.52-4.14 98.5-4.1Q99.36-4.1 99.61-4.14 99.86-4.18 100.03-4.32 100.19-4.46 100.19-4.82L100.19-4.82 100.19-14.58Q100.19-14.76 100.01-14.76L100.01-14.76 91.4-14.76Q91.22-14.76 91.22-14.58L91.22-14.58 91.22 0.83Q91.22 2.7 89.89 2.7ZM141.08-3.35Q140.4-2.41 139.14-2.95L139.14-2.95Q132.23-6.37 129.49-15.19L129.49-15.19 125.1-15.19 125.1-6.34Q125.64-6.48 126.76-6.73L126.76-6.73Q129.49-7.34 130.86-7.7L130.86-7.7Q132.12-8.03 132.23-6.73L132.23-6.73Q132.34-5.69 131.29-5.4L131.29-5.4Q129.31-4.9 125.53-3.92L125.53-3.92Q122.87-3.24 121.64-2.95L121.64-2.95Q120.53-2.7 120.31-3.94 120.1-5.18 121.25-5.44L121.25-5.44Q121.54-5.51 122.22-5.65L122.22-5.65Q122.44-5.69 122.54-5.72L122.54-5.72 122.54-26.5Q122.54-27.43 123.12-28.01 123.7-28.58 124.63-28.58L124.63-28.58 136.62-28.58Q137.56-28.58 138.13-28.01 138.71-27.43 138.71-26.5L138.71-26.5 138.71-17.28Q138.71-16.34 138.13-15.77 137.56-15.19 136.62-15.19L136.62-15.19 131.87-15.19Q132.59-13.1 133.85-11.12L133.85-11.12Q136.55-12.89 138.71-14.72L138.71-14.72Q139.43-15.37 140.33-14.72L140.33-14.72Q141.52-13.82 140.29-12.92L140.29-12.92Q137.48-10.87 135-9.5L135-9.5Q137.23-6.84 140.26-5.4L140.26-5.4Q141.16-5.04 141.37-4.57L141.37-4.57Q141.59-4.07 141.08-3.35L141.08-3.35ZM125.1-20.92L125.1-17.5 135.4-17.5Q136.15-17.5 136.15-18.25L136.15-18.25 136.15-20.92 125.1-20.92ZM125.1-25.52L125.1-22.97 136.15-22.97 136.15-25.52Q136.15-26.28 135.4-26.28L135.4-26.28 125.86-26.28Q125.1-26.28 125.1-25.52L125.1-25.52ZM129.35 2.38L129.35 2.38Q125.68 2.38 123.44 1.98L123.44 1.98Q121 1.51 119.12 0.36L119.12 0.36Q118.62 0.04 117.72-0.68L117.72-0.68Q116.21-1.91 115.67-1.91L115.67-1.91Q114.66-1.91 112.64 0.79L112.64 0.79Q112.03 1.66 111.35 1.84L111.35 1.84Q110.59 2.09 110.05 1.37L110.05 1.37Q109.66 0.86 109.76 0.22L109.76 0.22Q109.87-0.4 110.34-0.94L110.34-0.94Q112.72-3.49 114.48-4.21L114.48-4.21 114.48-14.62Q114.48-15.37 113.72-15.37L113.72-15.37 111.13-15.37Q109.84-15.37 109.84-16.7L109.84-16.7Q109.84-18 111.13-18L111.13-18 115.42-18Q116.21-18 116.66-17.55 117.11-17.1 117.11-16.31L117.11-16.31 117.11-4Q117.36-3.82 117.9-3.42L117.9-3.42Q119.02-2.56 119.81-2.05L119.81-2.05Q121.46-1.01 123.91-0.58L123.91-0.58Q125.93-0.25 129.38-0.25L129.38-0.25Q135.5-0.25 140.98-0.83L140.98-0.83Q141.98-0.94 142.27-0.59 142.56-0.25 142.27 0.76L142.27 0.76Q142.06 1.51 141.88 1.73L141.88 1.73Q141.62 1.98 140.94 2.02L140.94 2.02Q134.96 2.38 129.35 2.38ZM117.79-22.82Q117.22-22.39 116.78-22.41 116.35-22.43 115.92-23L115.92-23Q115.24-23.94 114.3-24.95L114.3-24.95Q113.44-25.96 112.25-27.14L112.25-27.14Q111.2-28.12 112.39-28.94L112.39-28.94Q113.26-29.56 114.08-28.8L114.08-28.8Q116.75-26.21 118.15-24.52L118.15-24.52Q118.84-23.65 117.79-22.82L117.79-22.82ZM177.48 1.98Q176.9 2.81 175.5 2.56L175.5 2.56Q166 0.5 162.18-6.59L162.18-6.59Q159.52-0.54 149 2.41L149 2.41Q148.36 2.56 147.74 2.48L147.74 2.48Q146.95 2.41 146.66 1.98L146.66 1.98Q146.16 1.3 146.88 0.68L146.88 0.68Q147.46 0.14 148.54-0.11L148.54-0.11Q157.43-2.63 159.59-7.49L159.59-7.49 147.56-7.49Q146.3-7.49 146.3-8.75 146.3-10.01 147.56-10.01L147.56-10.01 149.98-10.01 149.98-16.31Q149.98-17.24 150.55-17.82 151.13-18.4 152.06-18.4L152.06-18.4 160.49-18.4 160.49-21.17Q160.49-22.54 161.86-22.54L161.86-22.54Q163.22-22.54 163.22-21.17L163.22-21.17 163.22-18.4 172.15-18.4Q173.09-18.4 173.66-17.82 174.24-17.24 174.24-16.31L174.24-16.31 174.24-10.01 176.47-10.01Q177.73-10.01 177.73-8.75 177.73-7.49 176.47-7.49L176.47-7.49 164.41-7.49Q167.72-1.84 176.04-0.04L176.04-0.04Q178.56 0.43 177.48 1.98L177.48 1.98ZM152.57-15.23L152.57-10.01 160.31-10.01Q160.49-11.09 160.49-12.6L160.49-12.6 160.49-15.98 153.32-15.98Q152.57-15.98 152.57-15.23L152.57-15.23ZM163.08-10.01L163.08-10.01 171.58-10.01 171.58-15.23Q171.58-15.98 170.82-15.98L170.82-15.98 163.22-15.98 163.22-12.56Q163.22-11.12 163.08-10.01ZM155.56-20.63L155.56-20.63Q154.26-20.63 154.26-21.92L154.26-21.92 154.26-24.37 147.96-24.37Q146.74-24.37 146.74-25.6 146.74-26.82 147.96-26.82L147.96-26.82 154.26-26.82 154.26-28.8Q154.26-30.1 155.56-30.1L155.56-30.1Q156.85-30.1 156.85-28.8L156.85-28.8 156.85-26.82 166.97-26.82 166.97-28.8Q166.97-30.1 168.26-30.1L168.26-30.1Q169.56-30.1 169.56-28.8L169.56-28.8 169.56-26.82 175.9-26.82Q177.12-26.82 177.12-25.6 177.12-24.37 175.9-24.37L175.9-24.37 169.56-24.37 169.56-21.92Q169.56-20.63 168.26-20.63L168.26-20.63Q166.97-20.63 166.97-21.92L166.97-21.92 166.97-24.37 156.85-24.37 156.85-21.92Q156.85-20.63 155.56-20.63Z" transform="translate(-2.2699999809265137, 30.212045669555664)"></path></g> <!----> <!----> <!----> <!----> <!----> <!----> <!----></g></g> <g data-gra="path-slogan" fill-rule="" class="tp-slogan iconsvg-slogansvg" fill="#333" transform="translate(-2.0630035400390625,38.912044525146484)"><!----> <!----> <g transform="scale(1, 1)"><g transform="scale(1)"><path d="M5.33-4L5.33-4L4.59-4Q4.31-5.15 3.01-5.18L3.01-5.18Q1.21-5.09 1.15-2.88L1.15-2.88Q1.15-0.53 3.04-0.53L3.04-0.53Q4.34-0.56 4.65-2.11L4.65-2.11L5.40-2.11Q5.05 0.03 2.88 0.09L2.88 0.09Q0.40 0 0.34-2.85L0.34-2.85Q0.47-5.71 3.01-5.83L3.01-5.83Q5.02-5.77 5.33-4ZM7.07-3.35L10.05-3.35L10.05-5.67L10.82-5.67L10.82 0L10.05 0L10.05-2.64L7.07-2.64L7.07 0L6.29 0L6.29-5.67L7.07-5.67L7.07-3.35ZM15.75 0L15.19-1.64L12.90-1.64L12.31 0L11.53 0L13.67-5.67L14.54-5.67L16.59 0L15.75 0ZM14.05-4.84L13.15-2.33L14.91-2.33L14.08-4.84L14.05-4.84ZM18.20-5.67L21.05-1.09L21.05-5.67L21.80-5.67L21.80 0L20.93 0L18.05-4.59L18.02-4.59L18.02 0L17.27 0L17.27-5.67L18.20-5.67ZM27.22-2.39L25.49-2.39L25.49-3.04L27.97-3.04L27.97 0L27.47 0L27.29-0.71Q26.64 0.06 25.43 0.09L25.43 0.09Q24.28 0.09 23.66-0.50L23.66-0.50Q22.73-1.36 22.76-2.88L22.76-2.88Q22.98-5.71 25.46-5.83L25.46-5.83Q27.57-5.71 27.88-3.97L27.88-3.97L27.13-3.97Q26.82-5.15 25.43-5.18L25.43-5.18Q23.66-5.05 23.57-2.85L23.57-2.85Q23.57-0.50 25.46-0.50L25.46-0.50Q26.14-0.50 26.64-0.87L26.64-0.87Q27.26-1.36 27.22-2.39L27.22-2.39ZM33.89-4L33.89-4L33.15-4Q32.87-5.15 31.57-5.18L31.57-5.18Q29.77-5.09 29.71-2.88L29.71-2.88Q29.71-0.53 31.60-0.53L31.60-0.53Q32.90-0.56 33.21-2.11L33.21-2.11L33.95-2.11Q33.61 0.03 31.44 0.09L31.44 0.09Q28.96 0 28.90-2.85L28.90-2.85Q29.02-5.71 31.57-5.83L31.57-5.83Q33.58-5.77 33.89-4ZM35.63-3.35L38.60-3.35L38.60-5.67L39.38-5.67L39.38 0L38.60 0L38.60-2.64L35.63-2.64L35.63 0L34.85 0L34.85-5.67L35.63-5.67L35.63-3.35ZM44.31-2.11L44.31-5.67L45.09-5.67L45.09-2.02Q44.99 0.03 42.76 0.09L42.76 0.09Q40.68 0.03 40.59-1.89L40.59-1.89L40.59-5.67L41.36-5.67L41.36-2.11Q41.40-0.56 42.79-0.53L42.79-0.53Q44.31-0.56 44.31-2.11L44.31-2.11ZM47.19-5.67L50.05-1.09L50.05-5.67L50.79-5.67L50.79 0L49.92 0L47.04-4.59L47.01-4.59L47.01 0L46.26 0L46.26-5.67L47.19-5.67ZM58.91-4L58.91-4L58.17-4Q57.89-5.15 56.59-5.18L56.59-5.18Q54.79-5.09 54.73-2.88L54.73-2.88Q54.73-0.53 56.62-0.53L56.62-0.53Q57.92-0.56 58.23-2.11L58.23-2.11L58.98-2.11Q58.64 0.03 56.47 0.09L56.47 0.09Q53.98 0 53.92-2.85L53.92-2.85Q54.05-5.71 56.59-5.83L56.59-5.83Q58.60-5.77 58.91-4ZM60.00-5.67L60.78-5.67L60.78 0L60.00 0L60.00-5.67ZM63.53-5.02L61.61-5.02L61.61-5.67L66.20-5.67L66.20-5.02L64.28-5.02L64.28 0L63.53 0L63.53-5.02ZM71.47-5.67L69.33-2.29L69.33 0L68.56 0L68.56-2.29L66.42-5.67L67.32-5.67L68.93-2.95L70.57-5.67L71.47-5.67ZM77.52-4.71L77.49-4.71L76.19 0L75.38 0L73.89-5.67L74.70-5.67L75.78-1.05L75.81-1.05L77.09-5.67L77.92-5.67L79.19-1.05L79.22-1.05L80.28-5.67L81.12-5.67L79.63 0L78.82 0L77.52-4.71ZM81.95-5.67L82.73-5.67L82.73 0L81.95 0L81.95-5.67ZM85.49-5.02L83.57-5.02L83.57-5.67L88.16-5.67L88.16-5.02L86.23-5.02L86.23 0L85.49 0L85.49-5.02ZM89.61-3.35L92.59-3.35L92.59-5.67L93.36-5.67L93.36 0L92.59 0L92.59-2.64L89.61-2.64L89.61 0L88.84 0L88.84-5.67L89.61-5.67L89.61-3.35ZM96.87 0L94.57 0L94.57-5.67L96.90-5.67Q99.19-5.55 99.29-2.91L99.29-2.91Q99.16-0.06 96.87 0L96.87 0ZM96.78-5.05L95.35-5.05L95.35-0.65L96.84-0.65Q98.45-0.74 98.51-2.85L98.51-2.85Q98.48-4.99 96.78-5.05L96.78-5.05ZM102.98-2.45L101.12-2.45L101.12 0L100.34 0L100.34-5.67L102.98-5.67Q104.87-5.67 104.87-4.16L104.87-4.16Q104.87-3.22 104.06-2.79L104.06-2.79Q104.74-2.60 104.74-1.71L104.74-1.71L104.81-0.68Q104.78-0.25 105.09-0.12L105.09-0.12L105.09 0L104.12 0Q104.03-0.40 104.00-1.43L104.00-1.43Q104.03-2.45 102.98-2.45L102.98-2.45ZM103.04-5.05L101.12-5.05L101.12-3.10L102.91-3.10Q104.06-3.10 104.06-4.09L104.06-4.09Q104.06-5.05 103.04-5.05L103.04-5.05ZM109.71 0L109.15-1.64L106.85-1.64L106.26 0L105.49 0L107.63-5.67L108.50-5.67L110.54 0L109.71 0ZM108.00-4.84L107.10-2.33L108.87-2.33L108.03-4.84L108.00-4.84ZM114.39-4.71L114.36-4.71L113.05 0L112.25 0L110.76-5.67L111.57-5.67L112.65-1.05L112.68-1.05L113.95-5.67L114.79-5.67L116.06-1.05L116.09-1.05L117.15-5.67L117.98-5.67L116.50 0L115.69 0L114.39-4.71ZM122.85-4.03L122.85-4.03L122.14-4.03Q122.08-5.12 120.71-5.18L120.71-5.18Q119.44-5.15 119.44-4.19L119.44-4.19Q119.44-3.57 120.12-3.47L120.12-3.47L121.74-3.10Q123.01-2.79 123.01-1.55L123.01-1.55Q122.98 0.03 120.78 0.09L120.78 0.09Q119.57 0.09 119.07-0.40L119.07-0.40Q118.45-0.87 118.48-1.83L118.48-1.83L119.22-1.83Q119.26-0.53 120.78-0.50L120.78-0.50Q122.26-0.53 122.29-1.46L122.29-1.46Q122.42-2.23 121.05-2.48L121.05-2.48L119.88-2.73Q118.67-3.07 118.67-4.09L118.67-4.09Q118.76-5.77 120.65-5.83L120.65-5.83Q122.79-5.83 122.85-4.03ZM129.83-2.57L127.04-2.57L127.04 0L126.26 0L126.26-5.67L130.20-5.67L130.20-5.02L127.04-5.02L127.04-3.26L129.83-3.26L129.83-2.57ZM133.71-2.45L131.84-2.45L131.84 0L131.07 0L131.07-5.67L133.71-5.67Q135.60-5.67 135.60-4.16L135.60-4.16Q135.60-3.22 134.79-2.79L134.79-2.79Q135.47-2.60 135.47-1.71L135.47-1.71L135.53-0.68Q135.50-0.25 135.81-0.12L135.81-0.12L135.81 0L134.85 0Q134.76-0.40 134.73-1.43L134.73-1.43Q134.76-2.45 133.71-2.45L133.71-2.45ZM133.77-5.05L131.84-5.05L131.84-3.10L133.64-3.10Q134.79-3.10 134.79-4.09L134.79-4.09Q134.79-5.05 133.77-5.05L133.77-5.05ZM141.18-2.82L141.18-2.82Q141.05-5.05 139.19-5.18L139.19-5.18Q137.30-5.09 137.21-2.82L137.21-2.82Q137.30-0.62 139.19-0.53L139.19-0.53Q141.05-0.65 141.18-2.82ZM141.95-2.82L141.95-2.82Q141.77 0 139.19 0.09L139.19 0.09Q136.59 0 136.40-2.82L136.40-2.82Q136.56-5.77 139.19-5.83L139.19-5.83Q141.77-5.74 141.95-2.82ZM148.31-5.67L148.31 0L147.57 0L147.57-3.35Q147.57-3.81 147.57-4.78L147.57-4.78L145.95 0L145.18 0L143.60-4.78L143.57-4.78Q143.57-4.43 143.60-3.75L143.60-3.75Q143.60-3.41 143.60-3.35L143.60-3.35L143.60 0L142.82 0L142.82-5.67L143.94-5.67L145.58-0.87L147.19-5.67L148.31-5.67ZM153.09-5.02L151.16-5.02L151.16-5.67L155.75-5.67L155.75-5.02L153.83-5.02L153.83 0L153.09 0L153.09-5.02ZM157.21-3.35L160.19-3.35L160.19-5.67L160.96-5.67L160.96 0L160.19 0L160.19-2.64L157.21-2.64L157.21 0L156.43 0L156.43-5.67L157.21-5.67L157.21-3.35ZM163.01-0.68L166.42-0.68L166.42 0L162.23 0L162.23-5.67L166.36-5.67L166.36-5.02L163.01-5.02L163.01-3.26L166.11-3.26L166.11-2.57L163.01-2.57L163.01-0.68ZM173.36-2.11L173.36-5.67L174.14-5.67L174.14-2.02Q174.05 0.03 171.81 0.09L171.81 0.09Q169.74 0.03 169.64-1.89L169.64-1.89L169.64-5.67L170.42-5.67L170.42-2.11Q170.45-0.56 171.84-0.53L171.84-0.53Q173.36-0.56 173.36-2.11L173.36-2.11ZM176.99-2.85L176.09-2.02L176.09 0L175.32 0L175.32-5.67L176.09-5.67L176.09-2.91L178.85-5.67L179.94-5.67L177.55-3.38L180.00 0L178.98 0L176.99-2.85Z" transform="translate(-0.34108527131782945, 5.829457364341085)"></path></g></g></g></g></g><defs v-gra="od"></defs></svg>